<mxfile host="app.diagrams.net" modified="2023-03-27T16:52:54.819Z" agent="Mozilla/5.0 (Macintosh; Intel Mac OS X 10_15_7) AppleWebKit/537.36 (KHTML, like Gecko) Chrome/111.0.0.0 Safari/537.36" etag="vhJSdlxovMsswItl6e38" version="21.1.1" type="device">
  <diagram name="第 1 页" id="3cMAQ83HM8P24_TLo_T0">
    <mxGraphModel dx="1811" dy="546" grid="0" gridSize="10" guides="1" tooltips="1" connect="1" arrows="1" fold="1" page="1" pageScale="1" pageWidth="827" pageHeight="1169" math="0" shadow="0">
      <root>
        <mxCell id="0" />
        <mxCell id="1" parent="0" />
        <mxCell id="BbBet77EWDBrV_9ZcuZ6-1" value="airport" style="swimlane;fontStyle=0;childLayout=stackLayout;horizontal=1;startSize=30;horizontalStack=0;resizeParent=1;resizeParentMax=0;resizeLast=0;collapsible=1;marginBottom=0;whiteSpace=wrap;html=1;fillColor=#dae8fc;strokeColor=#6c8ebf;" parent="1" vertex="1">
          <mxGeometry x="78" y="352" width="140" height="180" as="geometry" />
        </mxCell>
        <mxCell id="BbBet77EWDBrV_9ZcuZ6-2" value="&lt;u&gt;code&lt;/u&gt;" style="text;strokeColor=none;fillColor=none;align=left;verticalAlign=middle;spacingLeft=4;spacingRight=4;overflow=hidden;points=[[0,0.5],[1,0.5]];portConstraint=eastwest;rotatable=0;whiteSpace=wrap;html=1;" parent="BbBet77EWDBrV_9ZcuZ6-1" vertex="1">
          <mxGeometry y="30" width="140" height="30" as="geometry" />
        </mxCell>
        <mxCell id="BbBet77EWDBrV_9ZcuZ6-3" value="name" style="text;strokeColor=none;fillColor=none;align=left;verticalAlign=middle;spacingLeft=4;spacingRight=4;overflow=hidden;points=[[0,0.5],[1,0.5]];portConstraint=eastwest;rotatable=0;whiteSpace=wrap;html=1;" parent="BbBet77EWDBrV_9ZcuZ6-1" vertex="1">
          <mxGeometry y="60" width="140" height="30" as="geometry" />
        </mxCell>
        <mxCell id="BbBet77EWDBrV_9ZcuZ6-4" value="city" style="text;strokeColor=none;fillColor=none;align=left;verticalAlign=middle;spacingLeft=4;spacingRight=4;overflow=hidden;points=[[0,0.5],[1,0.5]];portConstraint=eastwest;rotatable=0;whiteSpace=wrap;html=1;" parent="BbBet77EWDBrV_9ZcuZ6-1" vertex="1">
          <mxGeometry y="90" width="140" height="30" as="geometry" />
        </mxCell>
        <mxCell id="BbBet77EWDBrV_9ZcuZ6-5" value="country" style="text;strokeColor=none;fillColor=none;align=left;verticalAlign=middle;spacingLeft=4;spacingRight=4;overflow=hidden;points=[[0,0.5],[1,0.5]];portConstraint=eastwest;rotatable=0;whiteSpace=wrap;html=1;" parent="BbBet77EWDBrV_9ZcuZ6-1" vertex="1">
          <mxGeometry y="120" width="140" height="30" as="geometry" />
        </mxCell>
        <mxCell id="BbBet77EWDBrV_9ZcuZ6-6" value="airport_type" style="text;strokeColor=none;fillColor=none;align=left;verticalAlign=middle;spacingLeft=4;spacingRight=4;overflow=hidden;points=[[0,0.5],[1,0.5]];portConstraint=eastwest;rotatable=0;whiteSpace=wrap;html=1;" parent="BbBet77EWDBrV_9ZcuZ6-1" vertex="1">
          <mxGeometry y="150" width="140" height="30" as="geometry" />
        </mxCell>
        <mxCell id="BbBet77EWDBrV_9ZcuZ6-7" value="airline" style="swimlane;fontStyle=0;childLayout=stackLayout;horizontal=1;startSize=30;horizontalStack=0;resizeParent=1;resizeParentMax=0;resizeLast=0;collapsible=1;marginBottom=0;whiteSpace=wrap;html=1;fillColor=#dae8fc;strokeColor=#6c8ebf;" parent="1" vertex="1">
          <mxGeometry x="275" y="187" width="140" height="60" as="geometry" />
        </mxCell>
        <mxCell id="BbBet77EWDBrV_9ZcuZ6-8" value="&lt;u&gt;name&lt;/u&gt;" style="text;strokeColor=none;fillColor=none;align=left;verticalAlign=middle;spacingLeft=4;spacingRight=4;overflow=hidden;points=[[0,0.5],[1,0.5]];portConstraint=eastwest;rotatable=0;whiteSpace=wrap;html=1;" parent="BbBet77EWDBrV_9ZcuZ6-7" vertex="1">
          <mxGeometry y="30" width="140" height="30" as="geometry" />
        </mxCell>
        <mxCell id="BbBet77EWDBrV_9ZcuZ6-13" value="airplane" style="swimlane;fontStyle=0;childLayout=stackLayout;horizontal=1;startSize=30;horizontalStack=0;resizeParent=1;resizeParentMax=0;resizeLast=0;collapsible=1;marginBottom=0;whiteSpace=wrap;html=1;fillColor=#dae8fc;strokeColor=#6c8ebf;" parent="1" vertex="1">
          <mxGeometry x="656" y="194" width="140" height="180" as="geometry" />
        </mxCell>
        <mxCell id="BbBet77EWDBrV_9ZcuZ6-24" value="&lt;span style=&quot;border-bottom: 1px dotted&quot;&gt;&amp;nbsp;ID&lt;/span&gt;" style="ellipse;whiteSpace=wrap;html=1;align=left;strokeColor=none;fillColor=none;rounded=0;labelBackgroundColor=none;" parent="BbBet77EWDBrV_9ZcuZ6-13" vertex="1">
          <mxGeometry y="30" width="140" height="30" as="geometry" />
        </mxCell>
        <mxCell id="BbBet77EWDBrV_9ZcuZ6-16" value="seat number" style="text;strokeColor=none;fillColor=none;align=left;verticalAlign=middle;spacingLeft=4;spacingRight=4;overflow=hidden;points=[[0,0.5],[1,0.5]];portConstraint=eastwest;rotatable=0;whiteSpace=wrap;html=1;" parent="BbBet77EWDBrV_9ZcuZ6-13" vertex="1">
          <mxGeometry y="60" width="140" height="30" as="geometry" />
        </mxCell>
        <mxCell id="BbBet77EWDBrV_9ZcuZ6-17" value="manufacturing company" style="text;strokeColor=none;fillColor=none;align=left;verticalAlign=middle;spacingLeft=4;spacingRight=4;overflow=hidden;points=[[0,0.5],[1,0.5]];portConstraint=eastwest;rotatable=0;whiteSpace=wrap;html=1;" parent="BbBet77EWDBrV_9ZcuZ6-13" vertex="1">
          <mxGeometry y="90" width="140" height="30" as="geometry" />
        </mxCell>
        <mxCell id="BbBet77EWDBrV_9ZcuZ6-18" value="manufacturing date" style="text;strokeColor=none;fillColor=none;align=left;verticalAlign=middle;spacingLeft=4;spacingRight=4;overflow=hidden;points=[[0,0.5],[1,0.5]];portConstraint=eastwest;rotatable=0;whiteSpace=wrap;html=1;" parent="BbBet77EWDBrV_9ZcuZ6-13" vertex="1">
          <mxGeometry y="120" width="140" height="30" as="geometry" />
        </mxCell>
        <mxCell id="BbBet77EWDBrV_9ZcuZ6-20" value="age" style="text;strokeColor=none;fillColor=none;align=left;verticalAlign=middle;spacingLeft=4;spacingRight=4;overflow=hidden;points=[[0,0.5],[1,0.5]];portConstraint=eastwest;rotatable=0;whiteSpace=wrap;html=1;" parent="BbBet77EWDBrV_9ZcuZ6-13" vertex="1">
          <mxGeometry y="150" width="140" height="30" as="geometry" />
        </mxCell>
        <mxCell id="BbBet77EWDBrV_9ZcuZ6-28" style="edgeStyle=orthogonalEdgeStyle;rounded=0;orthogonalLoop=1;jettySize=auto;html=1;exitX=0;exitY=0.5;exitDx=0;exitDy=0;entryX=1.007;entryY=0.094;entryDx=0;entryDy=0;entryPerimeter=0;" parent="1" source="BbBet77EWDBrV_9ZcuZ6-25" target="BbBet77EWDBrV_9ZcuZ6-7" edge="1">
          <mxGeometry relative="1" as="geometry" />
        </mxCell>
        <mxCell id="BbBet77EWDBrV_9ZcuZ6-25" value="belong" style="shape=rhombus;double=1;perimeter=rhombusPerimeter;whiteSpace=wrap;html=1;align=center;" parent="1" vertex="1">
          <mxGeometry x="475" y="162" width="120" height="60" as="geometry" />
        </mxCell>
        <mxCell id="BbBet77EWDBrV_9ZcuZ6-29" value="" style="shape=link;html=1;rounded=0;endArrow=classicThin;endFill=1;labelBackgroundColor=none;fontColor=default;exitX=1;exitY=0.5;exitDx=0;exitDy=0;entryX=0;entryY=0;entryDx=0;entryDy=0;" parent="1" source="BbBet77EWDBrV_9ZcuZ6-25" target="BbBet77EWDBrV_9ZcuZ6-13" edge="1">
          <mxGeometry width="100" relative="1" as="geometry">
            <mxPoint x="601" y="206" as="sourcePoint" />
            <mxPoint x="643" y="207" as="targetPoint" />
          </mxGeometry>
        </mxCell>
        <mxCell id="BbBet77EWDBrV_9ZcuZ6-30" value="flight" style="swimlane;fontStyle=0;childLayout=stackLayout;horizontal=1;startSize=30;horizontalStack=0;resizeParent=1;resizeParentMax=0;resizeLast=0;collapsible=1;marginBottom=0;whiteSpace=wrap;html=1;fillColor=#dae8fc;strokeColor=#6c8ebf;" parent="1" vertex="1">
          <mxGeometry x="439" y="431" width="140" height="150" as="geometry" />
        </mxCell>
        <mxCell id="BbBet77EWDBrV_9ZcuZ6-31" value="&lt;span style=&quot;border-bottom: 1px dotted&quot;&gt;&amp;nbsp;flight number&lt;/span&gt;" style="ellipse;whiteSpace=wrap;html=1;align=left;strokeColor=none;fillColor=none;rounded=0;labelBackgroundColor=none;" parent="BbBet77EWDBrV_9ZcuZ6-30" vertex="1">
          <mxGeometry y="30" width="140" height="30" as="geometry" />
        </mxCell>
        <mxCell id="BbBet77EWDBrV_9ZcuZ6-56" value="&lt;span style=&quot;border-bottom: 1px dotted&quot;&gt;&amp;nbsp;departure date time&lt;/span&gt;" style="ellipse;whiteSpace=wrap;html=1;align=left;strokeColor=none;fillColor=none;rounded=0;labelBackgroundColor=none;" parent="BbBet77EWDBrV_9ZcuZ6-30" vertex="1">
          <mxGeometry y="60" width="140" height="30" as="geometry" />
        </mxCell>
        <mxCell id="BbBet77EWDBrV_9ZcuZ6-57" value="&amp;nbsp;arrival date time" style="ellipse;whiteSpace=wrap;html=1;align=left;strokeColor=none;fillColor=none;rounded=0;labelBackgroundColor=none;" parent="BbBet77EWDBrV_9ZcuZ6-30" vertex="1">
          <mxGeometry y="90" width="140" height="30" as="geometry" />
        </mxCell>
        <mxCell id="BbBet77EWDBrV_9ZcuZ6-58" value="&amp;nbsp;base price" style="ellipse;whiteSpace=wrap;html=1;align=left;strokeColor=none;fillColor=none;rounded=0;labelBackgroundColor=none;" parent="BbBet77EWDBrV_9ZcuZ6-30" vertex="1">
          <mxGeometry y="120" width="140" height="30" as="geometry" />
        </mxCell>
        <mxCell id="BbBet77EWDBrV_9ZcuZ6-38" style="edgeStyle=orthogonalEdgeStyle;rounded=0;orthogonalLoop=1;jettySize=auto;html=1;exitX=1;exitY=0.5;exitDx=0;exitDy=0;entryX=1;entryY=0.5;entryDx=0;entryDy=0;endArrow=classic;endFill=1;" parent="1" source="BbBet77EWDBrV_9ZcuZ6-36" target="BbBet77EWDBrV_9ZcuZ6-20" edge="1">
          <mxGeometry relative="1" as="geometry" />
        </mxCell>
        <mxCell id="BbBet77EWDBrV_9ZcuZ6-36" value="airplane_flight" style="shape=rhombus;perimeter=rhombusPerimeter;whiteSpace=wrap;html=1;align=center;" parent="1" vertex="1">
          <mxGeometry x="622" y="416" width="120" height="60" as="geometry" />
        </mxCell>
        <mxCell id="BbBet77EWDBrV_9ZcuZ6-47" style="edgeStyle=orthogonalEdgeStyle;rounded=0;orthogonalLoop=1;jettySize=auto;html=1;exitX=0;exitY=0.5;exitDx=0;exitDy=0;entryX=1;entryY=0;entryDx=0;entryDy=0;endArrow=classic;endFill=1;" parent="1" source="BbBet77EWDBrV_9ZcuZ6-39" target="BbBet77EWDBrV_9ZcuZ6-1" edge="1">
          <mxGeometry relative="1" as="geometry">
            <Array as="points">
              <mxPoint x="249" y="385" />
              <mxPoint x="249" y="352" />
            </Array>
          </mxGeometry>
        </mxCell>
        <mxCell id="BbBet77EWDBrV_9ZcuZ6-39" value="arrival" style="shape=rhombus;perimeter=rhombusPerimeter;whiteSpace=wrap;html=1;align=center;" parent="1" vertex="1">
          <mxGeometry x="279" y="355" width="120" height="60" as="geometry" />
        </mxCell>
        <mxCell id="BbBet77EWDBrV_9ZcuZ6-48" style="edgeStyle=orthogonalEdgeStyle;rounded=0;orthogonalLoop=1;jettySize=auto;html=1;exitX=0;exitY=0.5;exitDx=0;exitDy=0;entryX=1;entryY=0.5;entryDx=0;entryDy=0;endArrow=classic;endFill=1;" parent="1" source="BbBet77EWDBrV_9ZcuZ6-40" target="BbBet77EWDBrV_9ZcuZ6-6" edge="1">
          <mxGeometry relative="1" as="geometry" />
        </mxCell>
        <mxCell id="BbBet77EWDBrV_9ZcuZ6-40" value="departure" style="shape=rhombus;perimeter=rhombusPerimeter;whiteSpace=wrap;html=1;align=center;" parent="1" vertex="1">
          <mxGeometry x="279" y="487" width="120" height="60" as="geometry" />
        </mxCell>
        <mxCell id="BbBet77EWDBrV_9ZcuZ6-44" value="" style="shape=link;html=1;rounded=0;endArrow=classicThin;endFill=1;labelBackgroundColor=none;fontColor=default;entryX=0;entryY=0.5;entryDx=0;entryDy=0;exitX=1;exitY=0.25;exitDx=0;exitDy=0;" parent="1" source="BbBet77EWDBrV_9ZcuZ6-30" target="BbBet77EWDBrV_9ZcuZ6-36" edge="1">
          <mxGeometry width="100" relative="1" as="geometry">
            <mxPoint x="583" y="446" as="sourcePoint" />
            <mxPoint x="617" y="448" as="targetPoint" />
          </mxGeometry>
        </mxCell>
        <mxCell id="BbBet77EWDBrV_9ZcuZ6-45" value="" style="shape=link;html=1;rounded=0;endArrow=classicThin;endFill=1;labelBackgroundColor=none;fontColor=default;entryX=0;entryY=0.5;entryDx=0;entryDy=0;exitX=1;exitY=0.5;exitDx=0;exitDy=0;" parent="1" source="BbBet77EWDBrV_9ZcuZ6-40" target="BbBet77EWDBrV_9ZcuZ6-31" edge="1">
          <mxGeometry width="100" relative="1" as="geometry">
            <mxPoint x="413" y="521" as="sourcePoint" />
            <mxPoint x="456" y="521" as="targetPoint" />
          </mxGeometry>
        </mxCell>
        <mxCell id="BbBet77EWDBrV_9ZcuZ6-46" value="" style="shape=link;html=1;rounded=0;endArrow=classicThin;endFill=1;labelBackgroundColor=none;fontColor=default;entryX=0;entryY=0;entryDx=0;entryDy=0;exitX=1;exitY=0.5;exitDx=0;exitDy=0;" parent="1" source="BbBet77EWDBrV_9ZcuZ6-39" target="BbBet77EWDBrV_9ZcuZ6-30" edge="1">
          <mxGeometry width="100" relative="1" as="geometry">
            <mxPoint x="409" y="527" as="sourcePoint" />
            <mxPoint x="449" y="501" as="targetPoint" />
          </mxGeometry>
        </mxCell>
        <mxCell id="BbBet77EWDBrV_9ZcuZ6-51" style="edgeStyle=orthogonalEdgeStyle;rounded=0;orthogonalLoop=1;jettySize=auto;html=1;exitX=0;exitY=0.5;exitDx=0;exitDy=0;entryX=1;entryY=0.5;entryDx=0;entryDy=0;endArrow=classic;endFill=1;" parent="1" source="BbBet77EWDBrV_9ZcuZ6-49" target="BbBet77EWDBrV_9ZcuZ6-8" edge="1">
          <mxGeometry relative="1" as="geometry">
            <Array as="points">
              <mxPoint x="435" y="301" />
              <mxPoint x="435" y="232" />
            </Array>
          </mxGeometry>
        </mxCell>
        <mxCell id="BbBet77EWDBrV_9ZcuZ6-49" value="belong" style="shape=rhombus;double=1;perimeter=rhombusPerimeter;whiteSpace=wrap;html=1;align=center;" parent="1" vertex="1">
          <mxGeometry x="449" y="271" width="120" height="60" as="geometry" />
        </mxCell>
        <mxCell id="BbBet77EWDBrV_9ZcuZ6-50" value="" style="shape=link;html=1;rounded=0;endArrow=classicThin;endFill=1;labelBackgroundColor=none;fontColor=default;exitX=0.5;exitY=1;exitDx=0;exitDy=0;entryX=0.5;entryY=0;entryDx=0;entryDy=0;" parent="1" source="BbBet77EWDBrV_9ZcuZ6-49" target="BbBet77EWDBrV_9ZcuZ6-30" edge="1">
          <mxGeometry width="100" relative="1" as="geometry">
            <mxPoint x="498" y="352" as="sourcePoint" />
            <mxPoint x="559" y="354" as="targetPoint" />
          </mxGeometry>
        </mxCell>
        <mxCell id="BbBet77EWDBrV_9ZcuZ6-59" value="ticket" style="swimlane;fontStyle=0;childLayout=stackLayout;horizontal=1;startSize=30;horizontalStack=0;resizeParent=1;resizeParentMax=0;resizeLast=0;collapsible=1;marginBottom=0;whiteSpace=wrap;html=1;fillColor=#dae8fc;strokeColor=#6c8ebf;" parent="1" vertex="1">
          <mxGeometry x="200" y="639" width="140" height="180" as="geometry" />
        </mxCell>
        <mxCell id="BbBet77EWDBrV_9ZcuZ6-60" value="&lt;u&gt;ID&lt;/u&gt;" style="text;strokeColor=none;fillColor=none;align=left;verticalAlign=middle;spacingLeft=4;spacingRight=4;overflow=hidden;points=[[0,0.5],[1,0.5]];portConstraint=eastwest;rotatable=0;whiteSpace=wrap;html=1;" parent="BbBet77EWDBrV_9ZcuZ6-59" vertex="1">
          <mxGeometry y="30" width="140" height="30" as="geometry" />
        </mxCell>
        <mxCell id="BbBet77EWDBrV_9ZcuZ6-61" value="email" style="text;strokeColor=none;fillColor=none;align=left;verticalAlign=middle;spacingLeft=4;spacingRight=4;overflow=hidden;points=[[0,0.5],[1,0.5]];portConstraint=eastwest;rotatable=0;whiteSpace=wrap;html=1;" parent="BbBet77EWDBrV_9ZcuZ6-59" vertex="1">
          <mxGeometry y="60" width="140" height="30" as="geometry" />
        </mxCell>
        <mxCell id="BbBet77EWDBrV_9ZcuZ6-62" value="first name" style="text;strokeColor=none;fillColor=none;align=left;verticalAlign=middle;spacingLeft=4;spacingRight=4;overflow=hidden;points=[[0,0.5],[1,0.5]];portConstraint=eastwest;rotatable=0;whiteSpace=wrap;html=1;" parent="BbBet77EWDBrV_9ZcuZ6-59" vertex="1">
          <mxGeometry y="90" width="140" height="30" as="geometry" />
        </mxCell>
        <mxCell id="BbBet77EWDBrV_9ZcuZ6-63" value="last name" style="text;strokeColor=none;fillColor=none;align=left;verticalAlign=middle;spacingLeft=4;spacingRight=4;overflow=hidden;points=[[0,0.5],[1,0.5]];portConstraint=eastwest;rotatable=0;whiteSpace=wrap;html=1;" parent="BbBet77EWDBrV_9ZcuZ6-59" vertex="1">
          <mxGeometry y="120" width="140" height="30" as="geometry" />
        </mxCell>
        <mxCell id="BbBet77EWDBrV_9ZcuZ6-64" value="date of birth" style="text;strokeColor=none;fillColor=none;align=left;verticalAlign=middle;spacingLeft=4;spacingRight=4;overflow=hidden;points=[[0,0.5],[1,0.5]];portConstraint=eastwest;rotatable=0;whiteSpace=wrap;html=1;" parent="BbBet77EWDBrV_9ZcuZ6-59" vertex="1">
          <mxGeometry y="150" width="140" height="30" as="geometry" />
        </mxCell>
        <mxCell id="BbBet77EWDBrV_9ZcuZ6-76" style="edgeStyle=orthogonalEdgeStyle;rounded=0;orthogonalLoop=1;jettySize=auto;html=1;exitX=0.5;exitY=0;exitDx=0;exitDy=0;entryX=0.25;entryY=1;entryDx=0;entryDy=0;endArrow=classic;endFill=1;" parent="1" source="BbBet77EWDBrV_9ZcuZ6-74" target="BbBet77EWDBrV_9ZcuZ6-30" edge="1">
          <mxGeometry relative="1" as="geometry" />
        </mxCell>
        <mxCell id="BbBet77EWDBrV_9ZcuZ6-74" value="of" style="shape=rhombus;perimeter=rhombusPerimeter;whiteSpace=wrap;html=1;align=center;" parent="1" vertex="1">
          <mxGeometry x="415" y="610" width="120" height="60" as="geometry" />
        </mxCell>
        <mxCell id="BbBet77EWDBrV_9ZcuZ6-75" value="" style="shape=link;html=1;rounded=0;endArrow=classicThin;endFill=1;labelBackgroundColor=none;fontColor=default;entryX=0;entryY=0.5;entryDx=0;entryDy=0;exitX=1;exitY=0;exitDx=0;exitDy=0;" parent="1" source="BbBet77EWDBrV_9ZcuZ6-59" target="BbBet77EWDBrV_9ZcuZ6-74" edge="1">
          <mxGeometry width="100" relative="1" as="geometry">
            <mxPoint x="406" y="657" as="sourcePoint" />
            <mxPoint x="446" y="703" as="targetPoint" />
          </mxGeometry>
        </mxCell>
        <mxCell id="BbBet77EWDBrV_9ZcuZ6-114" style="edgeStyle=orthogonalEdgeStyle;rounded=0;orthogonalLoop=1;jettySize=auto;html=1;exitX=1;exitY=0;exitDx=0;exitDy=0;entryX=0.5;entryY=1;entryDx=0;entryDy=0;endArrow=none;endFill=0;" parent="1" source="BbBet77EWDBrV_9ZcuZ6-77" target="BbBet77EWDBrV_9ZcuZ6-113" edge="1">
          <mxGeometry relative="1" as="geometry" />
        </mxCell>
        <mxCell id="BbBet77EWDBrV_9ZcuZ6-77" value="customer" style="swimlane;fontStyle=0;childLayout=stackLayout;horizontal=1;startSize=30;horizontalStack=0;resizeParent=1;resizeParentMax=0;resizeLast=0;collapsible=1;marginBottom=0;whiteSpace=wrap;html=1;fillColor=#dae8fc;strokeColor=#6c8ebf;" parent="1" vertex="1">
          <mxGeometry x="402" y="931" width="140" height="510" as="geometry" />
        </mxCell>
        <mxCell id="BbBet77EWDBrV_9ZcuZ6-81" value="&lt;u&gt;email&lt;/u&gt;" style="text;strokeColor=none;fillColor=none;align=left;verticalAlign=middle;spacingLeft=4;spacingRight=4;overflow=hidden;points=[[0,0.5],[1,0.5]];portConstraint=eastwest;rotatable=0;whiteSpace=wrap;html=1;" parent="BbBet77EWDBrV_9ZcuZ6-77" vertex="1">
          <mxGeometry y="30" width="140" height="30" as="geometry" />
        </mxCell>
        <mxCell id="BbBet77EWDBrV_9ZcuZ6-78" value="name" style="text;strokeColor=none;fillColor=none;align=left;verticalAlign=middle;spacingLeft=4;spacingRight=4;overflow=hidden;points=[[0,0.5],[1,0.5]];portConstraint=eastwest;rotatable=0;whiteSpace=wrap;html=1;" parent="BbBet77EWDBrV_9ZcuZ6-77" vertex="1">
          <mxGeometry y="60" width="140" height="30" as="geometry" />
        </mxCell>
        <mxCell id="BbBet77EWDBrV_9ZcuZ6-79" value="&lt;span style=&quot;white-space: pre;&quot;&gt;	&lt;/span&gt;first name" style="text;strokeColor=none;fillColor=none;align=left;verticalAlign=middle;spacingLeft=4;spacingRight=4;overflow=hidden;points=[[0,0.5],[1,0.5]];portConstraint=eastwest;rotatable=0;whiteSpace=wrap;html=1;" parent="BbBet77EWDBrV_9ZcuZ6-77" vertex="1">
          <mxGeometry y="90" width="140" height="30" as="geometry" />
        </mxCell>
        <mxCell id="BbBet77EWDBrV_9ZcuZ6-80" value="&lt;span style=&quot;white-space: pre;&quot;&gt;	&lt;/span&gt;last name" style="text;strokeColor=none;fillColor=none;align=left;verticalAlign=middle;spacingLeft=4;spacingRight=4;overflow=hidden;points=[[0,0.5],[1,0.5]];portConstraint=eastwest;rotatable=0;whiteSpace=wrap;html=1;" parent="BbBet77EWDBrV_9ZcuZ6-77" vertex="1">
          <mxGeometry y="120" width="140" height="30" as="geometry" />
        </mxCell>
        <mxCell id="BbBet77EWDBrV_9ZcuZ6-82" value="password" style="text;strokeColor=none;fillColor=none;align=left;verticalAlign=middle;spacingLeft=4;spacingRight=4;overflow=hidden;points=[[0,0.5],[1,0.5]];portConstraint=eastwest;rotatable=0;whiteSpace=wrap;html=1;" parent="BbBet77EWDBrV_9ZcuZ6-77" vertex="1">
          <mxGeometry y="150" width="140" height="30" as="geometry" />
        </mxCell>
        <mxCell id="BbBet77EWDBrV_9ZcuZ6-83" value="address" style="text;strokeColor=none;fillColor=none;align=left;verticalAlign=middle;spacingLeft=4;spacingRight=4;overflow=hidden;points=[[0,0.5],[1,0.5]];portConstraint=eastwest;rotatable=0;whiteSpace=wrap;html=1;" parent="BbBet77EWDBrV_9ZcuZ6-77" vertex="1">
          <mxGeometry y="180" width="140" height="30" as="geometry" />
        </mxCell>
        <mxCell id="BbBet77EWDBrV_9ZcuZ6-87" value="&lt;span style=&quot;white-space: pre;&quot;&gt;	&lt;/span&gt;building number" style="text;strokeColor=none;fillColor=none;align=left;verticalAlign=middle;spacingLeft=4;spacingRight=4;overflow=hidden;points=[[0,0.5],[1,0.5]];portConstraint=eastwest;rotatable=0;whiteSpace=wrap;html=1;" parent="BbBet77EWDBrV_9ZcuZ6-77" vertex="1">
          <mxGeometry y="210" width="140" height="30" as="geometry" />
        </mxCell>
        <mxCell id="BbBet77EWDBrV_9ZcuZ6-86" value="&lt;span style=&quot;white-space: pre;&quot;&gt;	&lt;/span&gt;street name" style="text;strokeColor=none;fillColor=none;align=left;verticalAlign=middle;spacingLeft=4;spacingRight=4;overflow=hidden;points=[[0,0.5],[1,0.5]];portConstraint=eastwest;rotatable=0;whiteSpace=wrap;html=1;" parent="BbBet77EWDBrV_9ZcuZ6-77" vertex="1">
          <mxGeometry y="240" width="140" height="30" as="geometry" />
        </mxCell>
        <mxCell id="BbBet77EWDBrV_9ZcuZ6-85" value="&lt;span style=&quot;white-space: pre;&quot;&gt;	&lt;/span&gt;apartment number" style="text;strokeColor=none;fillColor=none;align=left;verticalAlign=middle;spacingLeft=4;spacingRight=4;overflow=hidden;points=[[0,0.5],[1,0.5]];portConstraint=eastwest;rotatable=0;whiteSpace=wrap;html=1;" parent="BbBet77EWDBrV_9ZcuZ6-77" vertex="1">
          <mxGeometry y="270" width="140" height="30" as="geometry" />
        </mxCell>
        <mxCell id="BbBet77EWDBrV_9ZcuZ6-84" value="&lt;span style=&quot;white-space: pre;&quot;&gt;	&lt;/span&gt;city" style="text;strokeColor=none;fillColor=none;align=left;verticalAlign=middle;spacingLeft=4;spacingRight=4;overflow=hidden;points=[[0,0.5],[1,0.5]];portConstraint=eastwest;rotatable=0;whiteSpace=wrap;html=1;" parent="BbBet77EWDBrV_9ZcuZ6-77" vertex="1">
          <mxGeometry y="300" width="140" height="30" as="geometry" />
        </mxCell>
        <mxCell id="BbBet77EWDBrV_9ZcuZ6-97" value="&lt;span style=&quot;white-space: pre;&quot;&gt;	&lt;/span&gt;state" style="text;strokeColor=none;fillColor=none;align=left;verticalAlign=middle;spacingLeft=4;spacingRight=4;overflow=hidden;points=[[0,0.5],[1,0.5]];portConstraint=eastwest;rotatable=0;whiteSpace=wrap;html=1;" parent="BbBet77EWDBrV_9ZcuZ6-77" vertex="1">
          <mxGeometry y="330" width="140" height="30" as="geometry" />
        </mxCell>
        <mxCell id="BbBet77EWDBrV_9ZcuZ6-96" value="&lt;span style=&quot;white-space: pre;&quot;&gt;	&lt;/span&gt;zip code" style="text;strokeColor=none;fillColor=none;align=left;verticalAlign=middle;spacingLeft=4;spacingRight=4;overflow=hidden;points=[[0,0.5],[1,0.5]];portConstraint=eastwest;rotatable=0;whiteSpace=wrap;html=1;" parent="BbBet77EWDBrV_9ZcuZ6-77" vertex="1">
          <mxGeometry y="360" width="140" height="30" as="geometry" />
        </mxCell>
        <mxCell id="BbBet77EWDBrV_9ZcuZ6-94" value="passport number" style="text;strokeColor=none;fillColor=none;align=left;verticalAlign=middle;spacingLeft=4;spacingRight=4;overflow=hidden;points=[[0,0.5],[1,0.5]];portConstraint=eastwest;rotatable=0;whiteSpace=wrap;html=1;" parent="BbBet77EWDBrV_9ZcuZ6-77" vertex="1">
          <mxGeometry y="390" width="140" height="30" as="geometry" />
        </mxCell>
        <mxCell id="BbBet77EWDBrV_9ZcuZ6-93" value="passport expiration" style="text;strokeColor=none;fillColor=none;align=left;verticalAlign=middle;spacingLeft=4;spacingRight=4;overflow=hidden;points=[[0,0.5],[1,0.5]];portConstraint=eastwest;rotatable=0;whiteSpace=wrap;html=1;" parent="BbBet77EWDBrV_9ZcuZ6-77" vertex="1">
          <mxGeometry y="420" width="140" height="30" as="geometry" />
        </mxCell>
        <mxCell id="BbBet77EWDBrV_9ZcuZ6-92" value="passport country" style="text;strokeColor=none;fillColor=none;align=left;verticalAlign=middle;spacingLeft=4;spacingRight=4;overflow=hidden;points=[[0,0.5],[1,0.5]];portConstraint=eastwest;rotatable=0;whiteSpace=wrap;html=1;" parent="BbBet77EWDBrV_9ZcuZ6-77" vertex="1">
          <mxGeometry y="450" width="140" height="30" as="geometry" />
        </mxCell>
        <mxCell id="BbBet77EWDBrV_9ZcuZ6-91" value="date of birth" style="text;strokeColor=none;fillColor=none;align=left;verticalAlign=middle;spacingLeft=4;spacingRight=4;overflow=hidden;points=[[0,0.5],[1,0.5]];portConstraint=eastwest;rotatable=0;whiteSpace=wrap;html=1;" parent="BbBet77EWDBrV_9ZcuZ6-77" vertex="1">
          <mxGeometry y="480" width="140" height="30" as="geometry" />
        </mxCell>
        <mxCell id="BbBet77EWDBrV_9ZcuZ6-109" value="" style="edgeStyle=orthogonalEdgeStyle;rounded=0;orthogonalLoop=1;jettySize=auto;html=1;endArrow=none;endFill=0;dashed=1;" parent="1" source="BbBet77EWDBrV_9ZcuZ6-98" target="BbBet77EWDBrV_9ZcuZ6-108" edge="1">
          <mxGeometry relative="1" as="geometry" />
        </mxCell>
        <mxCell id="BbBet77EWDBrV_9ZcuZ6-111" value="" style="edgeStyle=orthogonalEdgeStyle;rounded=0;orthogonalLoop=1;jettySize=auto;html=1;dashed=1;endArrow=none;endFill=0;" parent="1" source="BbBet77EWDBrV_9ZcuZ6-98" target="BbBet77EWDBrV_9ZcuZ6-107" edge="1">
          <mxGeometry relative="1" as="geometry" />
        </mxCell>
        <mxCell id="BbBet77EWDBrV_9ZcuZ6-112" value="" style="edgeStyle=orthogonalEdgeStyle;rounded=0;orthogonalLoop=1;jettySize=auto;html=1;endArrow=classic;endFill=1;entryX=0;entryY=0;entryDx=0;entryDy=0;" parent="1" source="BbBet77EWDBrV_9ZcuZ6-98" target="BbBet77EWDBrV_9ZcuZ6-77" edge="1">
          <mxGeometry relative="1" as="geometry">
            <mxPoint x="401" y="960" as="targetPoint" />
            <Array as="points">
              <mxPoint x="402" y="930" />
            </Array>
          </mxGeometry>
        </mxCell>
        <mxCell id="BbBet77EWDBrV_9ZcuZ6-98" value="purchased" style="shape=rhombus;perimeter=rhombusPerimeter;whiteSpace=wrap;html=1;align=center;" parent="1" vertex="1">
          <mxGeometry x="210" y="900" width="120" height="60" as="geometry" />
        </mxCell>
        <mxCell id="BbBet77EWDBrV_9ZcuZ6-107" value="purchased date time" style="rounded=0;whiteSpace=wrap;html=1;" parent="1" vertex="1">
          <mxGeometry x="38" y="911.5" width="120" height="37" as="geometry" />
        </mxCell>
        <mxCell id="BbBet77EWDBrV_9ZcuZ6-108" value="card type&lt;br&gt;&lt;span style=&quot;border-color: var(--border-color); text-align: left;&quot;&gt;	&lt;/span&gt;&lt;span style=&quot;text-align: left;&quot;&gt;card number&lt;br&gt;&lt;/span&gt;	&lt;span style=&quot;text-align: left;&quot;&gt;name&lt;br&gt;&lt;/span&gt;	&lt;span class=&quot;custom-cursor-default-hover&quot; style=&quot;text-align: left;&quot;&gt;expiration date&lt;br&gt;&lt;/span&gt;&lt;span style=&quot;text-align: left;&quot;&gt;purchased_price&lt;br&gt;&lt;/span&gt;" style="rounded=0;whiteSpace=wrap;html=1;" parent="1" vertex="1">
          <mxGeometry x="210" y="985" width="120" height="80" as="geometry" />
        </mxCell>
        <mxCell id="BbBet77EWDBrV_9ZcuZ6-115" style="edgeStyle=orthogonalEdgeStyle;rounded=0;orthogonalLoop=1;jettySize=auto;html=1;exitX=0.5;exitY=0;exitDx=0;exitDy=0;entryX=0.764;entryY=0.983;entryDx=0;entryDy=0;entryPerimeter=0;endArrow=none;endFill=0;" parent="1" source="BbBet77EWDBrV_9ZcuZ6-113" target="BbBet77EWDBrV_9ZcuZ6-58" edge="1">
          <mxGeometry relative="1" as="geometry" />
        </mxCell>
        <mxCell id="BbBet77EWDBrV_9ZcuZ6-117" style="edgeStyle=orthogonalEdgeStyle;rounded=0;orthogonalLoop=1;jettySize=auto;html=1;exitX=0;exitY=0.5;exitDx=0;exitDy=0;endArrow=none;endFill=0;entryX=1;entryY=0.5;entryDx=0;entryDy=0;dashed=1;" parent="1" source="BbBet77EWDBrV_9ZcuZ6-113" target="BbBet77EWDBrV_9ZcuZ6-116" edge="1">
          <mxGeometry relative="1" as="geometry">
            <mxPoint x="500" y="757" as="targetPoint" />
          </mxGeometry>
        </mxCell>
        <mxCell id="BbBet77EWDBrV_9ZcuZ6-119" value="" style="edgeStyle=orthogonalEdgeStyle;rounded=0;orthogonalLoop=1;jettySize=auto;html=1;dashed=1;endArrow=none;endFill=0;" parent="1" source="BbBet77EWDBrV_9ZcuZ6-113" target="BbBet77EWDBrV_9ZcuZ6-118" edge="1">
          <mxGeometry relative="1" as="geometry" />
        </mxCell>
        <mxCell id="BbBet77EWDBrV_9ZcuZ6-113" value="rate" style="shape=rhombus;perimeter=rhombusPerimeter;whiteSpace=wrap;html=1;align=center;" parent="1" vertex="1">
          <mxGeometry x="519" y="727" width="120" height="60" as="geometry" />
        </mxCell>
        <mxCell id="BbBet77EWDBrV_9ZcuZ6-116" value="rating" style="rounded=0;whiteSpace=wrap;html=1;" parent="1" vertex="1">
          <mxGeometry x="365" y="739.5" width="120" height="35" as="geometry" />
        </mxCell>
        <mxCell id="BbBet77EWDBrV_9ZcuZ6-118" value="comment" style="rounded=0;whiteSpace=wrap;html=1;" parent="1" vertex="1">
          <mxGeometry x="662" y="739.5" width="120" height="35" as="geometry" />
        </mxCell>
        <mxCell id="BbBet77EWDBrV_9ZcuZ6-120" value="airline staff" style="swimlane;fontStyle=0;childLayout=stackLayout;horizontal=1;startSize=30;horizontalStack=0;resizeParent=1;resizeParentMax=0;resizeLast=0;collapsible=1;marginBottom=0;whiteSpace=wrap;html=1;fillColor=#dae8fc;strokeColor=#6c8ebf;" parent="1" vertex="1">
          <mxGeometry x="7" y="31" width="140" height="210" as="geometry" />
        </mxCell>
        <mxCell id="BbBet77EWDBrV_9ZcuZ6-121" value="&lt;u&gt;username&lt;/u&gt;" style="text;strokeColor=none;fillColor=none;align=left;verticalAlign=middle;spacingLeft=4;spacingRight=4;overflow=hidden;points=[[0,0.5],[1,0.5]];portConstraint=eastwest;rotatable=0;whiteSpace=wrap;html=1;" parent="BbBet77EWDBrV_9ZcuZ6-120" vertex="1">
          <mxGeometry y="30" width="140" height="30" as="geometry" />
        </mxCell>
        <mxCell id="BbBet77EWDBrV_9ZcuZ6-125" value="password" style="text;strokeColor=none;fillColor=none;align=left;verticalAlign=middle;spacingLeft=4;spacingRight=4;overflow=hidden;points=[[0,0.5],[1,0.5]];portConstraint=eastwest;rotatable=0;whiteSpace=wrap;html=1;" parent="BbBet77EWDBrV_9ZcuZ6-120" vertex="1">
          <mxGeometry y="60" width="140" height="30" as="geometry" />
        </mxCell>
        <mxCell id="BbBet77EWDBrV_9ZcuZ6-124" value="first name" style="text;strokeColor=none;fillColor=none;align=left;verticalAlign=middle;spacingLeft=4;spacingRight=4;overflow=hidden;points=[[0,0.5],[1,0.5]];portConstraint=eastwest;rotatable=0;whiteSpace=wrap;html=1;" parent="BbBet77EWDBrV_9ZcuZ6-120" vertex="1">
          <mxGeometry y="90" width="140" height="30" as="geometry" />
        </mxCell>
        <mxCell id="BbBet77EWDBrV_9ZcuZ6-123" value="last name" style="text;strokeColor=none;fillColor=none;align=left;verticalAlign=middle;spacingLeft=4;spacingRight=4;overflow=hidden;points=[[0,0.5],[1,0.5]];portConstraint=eastwest;rotatable=0;whiteSpace=wrap;html=1;" parent="BbBet77EWDBrV_9ZcuZ6-120" vertex="1">
          <mxGeometry y="120" width="140" height="30" as="geometry" />
        </mxCell>
        <mxCell id="BbBet77EWDBrV_9ZcuZ6-122" value="date of birth" style="text;strokeColor=none;fillColor=none;align=left;verticalAlign=middle;spacingLeft=4;spacingRight=4;overflow=hidden;points=[[0,0.5],[1,0.5]];portConstraint=eastwest;rotatable=0;whiteSpace=wrap;html=1;" parent="BbBet77EWDBrV_9ZcuZ6-120" vertex="1">
          <mxGeometry y="150" width="140" height="30" as="geometry" />
        </mxCell>
        <mxCell id="BbBet77EWDBrV_9ZcuZ6-126" value="{phone number}" style="text;strokeColor=none;fillColor=none;align=left;verticalAlign=middle;spacingLeft=4;spacingRight=4;overflow=hidden;points=[[0,0.5],[1,0.5]];portConstraint=eastwest;rotatable=0;whiteSpace=wrap;html=1;" parent="BbBet77EWDBrV_9ZcuZ6-120" vertex="1">
          <mxGeometry y="180" width="140" height="30" as="geometry" />
        </mxCell>
        <mxCell id="BbBet77EWDBrV_9ZcuZ6-129" style="edgeStyle=orthogonalEdgeStyle;rounded=0;orthogonalLoop=1;jettySize=auto;html=1;exitX=1;exitY=0.5;exitDx=0;exitDy=0;entryX=0.5;entryY=0;entryDx=0;entryDy=0;endArrow=classic;endFill=1;" parent="1" source="BbBet77EWDBrV_9ZcuZ6-128" target="BbBet77EWDBrV_9ZcuZ6-7" edge="1">
          <mxGeometry relative="1" as="geometry" />
        </mxCell>
        <mxCell id="BbBet77EWDBrV_9ZcuZ6-128" value="work" style="shape=rhombus;perimeter=rhombusPerimeter;whiteSpace=wrap;html=1;align=center;" parent="1" vertex="1">
          <mxGeometry x="205" y="14" width="120" height="60" as="geometry" />
        </mxCell>
        <mxCell id="BbBet77EWDBrV_9ZcuZ6-130" value="" style="shape=link;html=1;rounded=0;endArrow=classicThin;endFill=1;labelBackgroundColor=none;fontColor=default;entryX=0;entryY=0.5;entryDx=0;entryDy=0;exitX=0.993;exitY=0.056;exitDx=0;exitDy=0;exitPerimeter=0;" parent="1" source="BbBet77EWDBrV_9ZcuZ6-120" target="BbBet77EWDBrV_9ZcuZ6-128" edge="1">
          <mxGeometry width="100" relative="1" as="geometry">
            <mxPoint x="178" y="89" as="sourcePoint" />
            <mxPoint x="218" y="135" as="targetPoint" />
          </mxGeometry>
        </mxCell>
        <mxCell id="QwODKco6X23gNbAxIzPT-1" value="staff email" style="swimlane;fontStyle=0;childLayout=stackLayout;horizontal=1;startSize=30;horizontalStack=0;resizeParent=1;resizeParentMax=0;resizeLast=0;collapsible=1;marginBottom=0;whiteSpace=wrap;html=1;fillColor=#dae8fc;strokeColor=#6c8ebf;" parent="1" vertex="1">
          <mxGeometry x="-198" y="172" width="140" height="60" as="geometry" />
        </mxCell>
        <mxCell id="QwODKco6X23gNbAxIzPT-2" value="&lt;u&gt;email&lt;/u&gt;" style="text;strokeColor=none;fillColor=none;align=left;verticalAlign=middle;spacingLeft=4;spacingRight=4;overflow=hidden;points=[[0,0.5],[1,0.5]];portConstraint=eastwest;rotatable=0;whiteSpace=wrap;html=1;" parent="QwODKco6X23gNbAxIzPT-1" vertex="1">
          <mxGeometry y="30" width="140" height="30" as="geometry" />
        </mxCell>
        <mxCell id="QwODKco6X23gNbAxIzPT-5" value="belong" style="shape=rhombus;perimeter=rhombusPerimeter;whiteSpace=wrap;html=1;align=center;" parent="1" vertex="1">
          <mxGeometry x="-188" width="120" height="60" as="geometry" />
        </mxCell>
        <mxCell id="QwODKco6X23gNbAxIzPT-7" value="" style="shape=link;html=1;rounded=0;endArrow=classicThin;endFill=1;labelBackgroundColor=none;fontColor=default;entryX=0.5;entryY=0;entryDx=0;entryDy=0;exitX=0.5;exitY=1;exitDx=0;exitDy=0;" parent="1" source="QwODKco6X23gNbAxIzPT-5" target="QwODKco6X23gNbAxIzPT-1" edge="1">
          <mxGeometry width="100" relative="1" as="geometry">
            <mxPoint x="156" y="53" as="sourcePoint" />
            <mxPoint x="215" y="54" as="targetPoint" />
          </mxGeometry>
        </mxCell>
        <mxCell id="QwODKco6X23gNbAxIzPT-9" value="" style="html=1;rounded=0;endArrow=classicThin;endFill=1;labelBackgroundColor=none;fontColor=default;entryX=1;entryY=0.5;entryDx=0;entryDy=0;exitX=0;exitY=0;exitDx=0;exitDy=0;shape=link;" parent="1" source="BbBet77EWDBrV_9ZcuZ6-120" target="QwODKco6X23gNbAxIzPT-5" edge="1">
          <mxGeometry width="100" relative="1" as="geometry">
            <mxPoint x="-118" y="70" as="sourcePoint" />
            <mxPoint x="-118" y="182" as="targetPoint" />
          </mxGeometry>
        </mxCell>
        <mxCell id="QwODKco6X23gNbAxIzPT-11" value="" style="endArrow=classic;html=1;rounded=0;" parent="1" edge="1">
          <mxGeometry relative="1" as="geometry">
            <mxPoint x="4" y="31" as="sourcePoint" />
            <mxPoint x="12" y="31" as="targetPoint" />
          </mxGeometry>
        </mxCell>
        <mxCell id="QwODKco6X23gNbAxIzPT-13" value="customer phone number" style="swimlane;fontStyle=0;childLayout=stackLayout;horizontal=1;startSize=30;horizontalStack=0;resizeParent=1;resizeParentMax=0;resizeLast=0;collapsible=1;marginBottom=0;whiteSpace=wrap;html=1;fillColor=#dae8fc;strokeColor=#6c8ebf;" parent="1" vertex="1">
          <mxGeometry x="632" y="1038" width="140" height="60" as="geometry" />
        </mxCell>
        <mxCell id="QwODKco6X23gNbAxIzPT-14" value="&lt;u&gt;phone number&lt;/u&gt;" style="text;strokeColor=none;fillColor=none;align=left;verticalAlign=middle;spacingLeft=4;spacingRight=4;overflow=hidden;points=[[0,0.5],[1,0.5]];portConstraint=eastwest;rotatable=0;whiteSpace=wrap;html=1;" parent="QwODKco6X23gNbAxIzPT-13" vertex="1">
          <mxGeometry y="30" width="140" height="30" as="geometry" />
        </mxCell>
        <mxCell id="QwODKco6X23gNbAxIzPT-17" value="belong" style="shape=rhombus;perimeter=rhombusPerimeter;whiteSpace=wrap;html=1;align=center;" parent="1" vertex="1">
          <mxGeometry x="642" y="902" width="120" height="60" as="geometry" />
        </mxCell>
        <mxCell id="QwODKco6X23gNbAxIzPT-19" value="" style="shape=link;html=1;rounded=0;endArrow=classicThin;endFill=1;labelBackgroundColor=none;fontColor=default;entryX=0.5;entryY=0;entryDx=0;entryDy=0;exitX=0.5;exitY=1;exitDx=0;exitDy=0;" parent="1" source="QwODKco6X23gNbAxIzPT-17" target="QwODKco6X23gNbAxIzPT-13" edge="1">
          <mxGeometry width="100" relative="1" as="geometry">
            <mxPoint x="350" y="649" as="sourcePoint" />
            <mxPoint x="425" y="650" as="targetPoint" />
          </mxGeometry>
        </mxCell>
        <mxCell id="QwODKco6X23gNbAxIzPT-20" value="" style="shape=link;html=1;rounded=0;endArrow=classicThin;endFill=1;labelBackgroundColor=none;fontColor=default;entryX=0;entryY=0.5;entryDx=0;entryDy=0;exitX=1;exitY=0;exitDx=0;exitDy=0;" parent="1" source="BbBet77EWDBrV_9ZcuZ6-77" target="QwODKco6X23gNbAxIzPT-17" edge="1">
          <mxGeometry width="100" relative="1" as="geometry">
            <mxPoint x="712" y="993" as="sourcePoint" />
            <mxPoint x="712" y="1048" as="targetPoint" />
          </mxGeometry>
        </mxCell>
        <mxCell id="QwODKco6X23gNbAxIzPT-21" value="" style="endArrow=none;html=1;rounded=0;startArrow=classic;startFill=1;endFill=0;" parent="1" edge="1">
          <mxGeometry relative="1" as="geometry">
            <mxPoint x="538" y="931.5" as="sourcePoint" />
            <mxPoint x="546" y="931.5" as="targetPoint" />
          </mxGeometry>
        </mxCell>
        <mxCell id="YCWToO0Un6JOTMOak4bf-4" value="" style="shape=link;html=1;rounded=0;endArrow=classicThin;endFill=1;labelBackgroundColor=none;fontColor=default;entryX=0.5;entryY=0;entryDx=0;entryDy=0;exitX=0.493;exitY=1.033;exitDx=0;exitDy=0;exitPerimeter=0;" parent="1" source="BbBet77EWDBrV_9ZcuZ6-64" target="BbBet77EWDBrV_9ZcuZ6-98" edge="1">
          <mxGeometry width="100" relative="1" as="geometry">
            <mxPoint x="243" y="833" as="sourcePoint" />
            <mxPoint x="425" y="650" as="targetPoint" />
          </mxGeometry>
        </mxCell>
      </root>
    </mxGraphModel>
  </diagram>
</mxfile>
